<svg width="136" height="25" viewBox="0 0 136 25" fill="none" xmlns="http://www.w3.org/2000/svg">
<path d="M11.2826 4.10728C11.5131 3.64034 11.6284 3.40687 11.7848 3.33228C11.9209 3.26737 12.0791 3.26737 12.2152 3.33228C12.3716 3.40687 12.4869 3.64034 12.7174 4.10728L14.904 8.53724C14.9721 8.6751 15.0061 8.74402 15.0558 8.79754C15.0999 8.84492 15.1527 8.88331 15.2113 8.91058C15.2775 8.94138 15.3536 8.9525 15.5057 8.97473L20.397 9.68967C20.912 9.76495 21.1696 9.8026 21.2888 9.9284C21.3925 10.0379 21.4412 10.1883 21.4215 10.3377C21.3988 10.5095 21.2124 10.6911 20.8395 11.0543L17.3014 14.5004C17.1911 14.6078 17.136 14.6615 17.1004 14.7254C17.0689 14.782 17.0487 14.8442 17.0409 14.9085C17.0321 14.9811 17.0451 15.057 17.0711 15.2087L17.9059 20.0761C17.994 20.5895 18.038 20.8461 17.9553 20.9985C17.8833 21.131 17.7553 21.2239 17.607 21.2514C17.4366 21.283 17.2061 21.1618 16.7451 20.9194L12.3724 18.6198C12.2361 18.5481 12.168 18.5123 12.0962 18.4982C12.0327 18.4858 11.9673 18.4858 11.9038 18.4982C11.832 18.5123 11.7639 18.5481 11.6276 18.6198L7.25491 20.9194C6.7939 21.1618 6.5634 21.283 6.39296 21.2514C6.24467 21.2239 6.11671 21.131 6.04472 20.9985C5.96199 20.8461 6.00601 20.5894 6.09406 20.0761L6.92887 15.2087C6.9549 15.057 6.96791 14.9811 6.9591 14.9085C6.95131 14.8442 6.9311 14.782 6.89959 14.7254C6.86401 14.6615 6.80886 14.6078 6.69857 14.5004L3.16054 11.0543C2.78765 10.6911 2.6012 10.5095 2.57851 10.3377C2.55877 10.1883 2.60754 10.0379 2.71124 9.9284C2.83042 9.8026 3.08796 9.76495 3.60303 9.68967L8.4943 8.97473C8.64641 8.9525 8.72247 8.94138 8.7887 8.91058C8.84735 8.88331 8.90015 8.84492 8.94417 8.79754C8.99389 8.74402 9.02791 8.6751 9.09596 8.53724L11.2826 4.10728Z" fill="#FFB200"/>
<path d="M39.2826 4.10728C39.5131 3.64034 39.6284 3.40687 39.7848 3.33228C39.9209 3.26737 40.0791 3.26737 40.2152 3.33228C40.3716 3.40687 40.4869 3.64034 40.7174 4.10728L42.904 8.53724C42.9721 8.6751 43.0061 8.74402 43.0558 8.79754C43.0999 8.84492 43.1527 8.88331 43.2113 8.91058C43.2775 8.94138 43.3536 8.9525 43.5057 8.97473L48.397 9.68967C48.912 9.76495 49.1696 9.8026 49.2888 9.9284C49.3925 10.0379 49.4412 10.1883 49.4215 10.3377C49.3988 10.5095 49.2124 10.6911 48.8395 11.0543L45.3014 14.5004C45.1911 14.6078 45.136 14.6615 45.1004 14.7254C45.0689 14.782 45.0487 14.8442 45.0409 14.9085C45.0321 14.9811 45.0451 15.057 45.0711 15.2087L45.9059 20.0761C45.994 20.5895 46.038 20.8461 45.9553 20.9985C45.8833 21.131 45.7553 21.2239 45.607 21.2514C45.4366 21.283 45.2061 21.1618 44.7451 20.9194L40.3724 18.6198C40.2361 18.5481 40.168 18.5123 40.0962 18.4982C40.0327 18.4858 39.9673 18.4858 39.9038 18.4982C39.832 18.5123 39.7639 18.5481 39.6276 18.6198L35.2549 20.9194C34.7939 21.1618 34.5634 21.283 34.393 21.2514C34.2447 21.2239 34.1167 21.131 34.0447 20.9985C33.962 20.8461 34.006 20.5894 34.0941 20.0761L34.9289 15.2087C34.9549 15.057 34.9679 14.9811 34.9591 14.9085C34.9513 14.8442 34.9311 14.782 34.8996 14.7254C34.864 14.6615 34.8089 14.6078 34.6986 14.5004L31.1605 11.0543C30.7876 10.6911 30.6012 10.5095 30.5785 10.3377C30.5588 10.1883 30.6075 10.0379 30.7112 9.9284C30.8304 9.8026 31.088 9.76495 31.603 9.68967L36.4943 8.97473C36.6464 8.9525 36.7225 8.94138 36.7887 8.91058C36.8473 8.88331 36.9001 8.84492 36.9442 8.79754C36.9939 8.74402 37.0279 8.6751 37.096 8.53724L39.2826 4.10728Z" fill="#FFB200"/>
<path d="M67.2826 4.10728C67.5131 3.64034 67.6284 3.40687 67.7848 3.33228C67.9209 3.26737 68.0791 3.26737 68.2152 3.33228C68.3716 3.40687 68.4869 3.64034 68.7174 4.10728L70.904 8.53724C70.9721 8.6751 71.0061 8.74402 71.0558 8.79754C71.0999 8.84492 71.1527 8.88331 71.2113 8.91058C71.2775 8.94138 71.3536 8.9525 71.5057 8.97473L76.397 9.68967C76.912 9.76495 77.1696 9.8026 77.2888 9.9284C77.3925 10.0379 77.4412 10.1883 77.4215 10.3377C77.3988 10.5095 77.2124 10.6911 76.8395 11.0543L73.3014 14.5004C73.1911 14.6078 73.136 14.6615 73.1004 14.7254C73.0689 14.782 73.0487 14.8442 73.0409 14.9085C73.0321 14.9811 73.0451 15.057 73.0711 15.2087L73.9059 20.0761C73.994 20.5895 74.038 20.8461 73.9553 20.9985C73.8833 21.131 73.7553 21.2239 73.607 21.2514C73.4366 21.283 73.2061 21.1618 72.7451 20.9194L68.3724 18.6198C68.2361 18.5481 68.168 18.5123 68.0962 18.4982C68.0327 18.4858 67.9673 18.4858 67.9038 18.4982C67.832 18.5123 67.7639 18.5481 67.6276 18.6198L63.2549 20.9194C62.7939 21.1618 62.5634 21.283 62.393 21.2514C62.2447 21.2239 62.1167 21.131 62.0447 20.9985C61.962 20.8461 62.006 20.5894 62.0941 20.0761L62.9289 15.2087C62.9549 15.057 62.9679 14.9811 62.9591 14.9085C62.9513 14.8442 62.9311 14.782 62.8996 14.7254C62.864 14.6615 62.8089 14.6078 62.6986 14.5004L59.1605 11.0543C58.7876 10.6911 58.6012 10.5095 58.5785 10.3377C58.5588 10.1883 58.6075 10.0379 58.7112 9.9284C58.8304 9.8026 59.088 9.76495 59.603 9.68967L64.4943 8.97473C64.6464 8.9525 64.7225 8.94138 64.7887 8.91058C64.8473 8.88331 64.9001 8.84492 64.9442 8.79754C64.9939 8.74402 65.0279 8.6751 65.096 8.53724L67.2826 4.10728Z" fill="#FFB200"/>
<path d="M95.2826 4.10728C95.5131 3.64034 95.6284 3.40687 95.7848 3.33228C95.9209 3.26737 96.0791 3.26737 96.2152 3.33228C96.3716 3.40687 96.4869 3.64034 96.7174 4.10728L98.904 8.53724C98.9721 8.6751 99.0061 8.74402 99.0558 8.79754C99.0999 8.84492 99.1527 8.88331 99.2113 8.91058C99.2775 8.94138 99.3536 8.9525 99.5057 8.97473L104.397 9.68967C104.912 9.76495 105.17 9.8026 105.289 9.9284C105.392 10.0379 105.441 10.1883 105.421 10.3377C105.399 10.5095 105.212 10.6911 104.839 11.0543L101.301 14.5004C101.191 14.6078 101.136 14.6615 101.1 14.7254C101.069 14.782 101.049 14.8442 101.041 14.9085C101.032 14.9811 101.045 15.057 101.071 15.2087L101.906 20.0761C101.994 20.5895 102.038 20.8461 101.955 20.9985C101.883 21.131 101.755 21.2239 101.607 21.2514C101.437 21.283 101.206 21.1618 100.745 20.9194L96.3724 18.6198C96.2361 18.5481 96.168 18.5123 96.0962 18.4982C96.0327 18.4858 95.9673 18.4858 95.9038 18.4982C95.832 18.5123 95.7639 18.5481 95.6276 18.6198L91.2549 20.9194C90.7939 21.1618 90.5634 21.283 90.393 21.2514C90.2447 21.2239 90.1167 21.131 90.0447 20.9985C89.962 20.8461 90.006 20.5894 90.0941 20.0761L90.9289 15.2087C90.9549 15.057 90.9679 14.9811 90.9591 14.9085C90.9513 14.8442 90.9311 14.782 90.8996 14.7254C90.864 14.6615 90.8089 14.6078 90.6986 14.5004L87.1605 11.0543C86.7876 10.6911 86.6012 10.5095 86.5785 10.3377C86.5588 10.1883 86.6075 10.0379 86.7112 9.9284C86.8304 9.8026 87.088 9.76495 87.603 9.68967L92.4943 8.97473C92.6464 8.9525 92.7225 8.94138 92.7887 8.91058C92.8473 8.88331 92.9001 8.84492 92.9442 8.79754C92.9939 8.74402 93.0279 8.6751 93.096 8.53724L95.2826 4.10728Z" fill="#FFB200"/>
<path d="M123.283 4.10728C123.513 3.64034 123.628 3.40687 123.785 3.33228C123.921 3.26737 124.079 3.26737 124.215 3.33228C124.372 3.40687 124.487 3.64034 124.717 4.10728L126.904 8.53724C126.972 8.6751 127.006 8.74402 127.056 8.79754C127.1 8.84492 127.153 8.88331 127.211 8.91058C127.278 8.94138 127.354 8.9525 127.506 8.97473L132.397 9.68967C132.912 9.76495 133.17 9.8026 133.289 9.9284C133.392 10.0379 133.441 10.1883 133.421 10.3377C133.399 10.5095 133.212 10.6911 132.839 11.0543L129.301 14.5004C129.191 14.6078 129.136 14.6615 129.1 14.7254C129.069 14.782 129.049 14.8442 129.041 14.9085C129.032 14.9811 129.045 15.057 129.071 15.2087L129.906 20.0761C129.994 20.5895 130.038 20.8461 129.955 20.9985C129.883 21.131 129.755 21.2239 129.607 21.2514C129.437 21.283 129.206 21.1618 128.745 20.9194L124.372 18.6198C124.236 18.5481 124.168 18.5123 124.096 18.4982C124.033 18.4858 123.967 18.4858 123.904 18.4982C123.832 18.5123 123.764 18.5481 123.628 18.6198L119.255 20.9194C118.794 21.1618 118.563 21.283 118.393 21.2514C118.245 21.2239 118.117 21.131 118.045 20.9985C117.962 20.8461 118.006 20.5894 118.094 20.0761L118.929 15.2087C118.955 15.057 118.968 14.9811 118.959 14.9085C118.951 14.8442 118.931 14.782 118.9 14.7254C118.864 14.6615 118.809 14.6078 118.699 14.5004L115.161 11.0543C114.788 10.6911 114.601 10.5095 114.579 10.3377C114.559 10.1883 114.608 10.0379 114.711 9.9284C114.83 9.8026 115.088 9.76495 115.603 9.68967L120.494 8.97473C120.646 8.9525 120.722 8.94138 120.789 8.91058C120.847 8.88331 120.9 8.84492 120.944 8.79754C120.994 8.74402 121.028 8.6751 121.096 8.53724L123.283 4.10728Z" fill="#FFB200"/>
</svg>
